<svg width="56" height="21" viewBox="0 0 56 21" fill="none" xmlns="http://www.w3.org/2000/svg">
<path d="M2.13315 0C3.13742 3.09341 4.2409 6.29371 3.86944 9.52545C3.51855 12.5937 0.458574 15.3602 0.0483982 17.982H38.7307C39.372 16.9509 40.6908 16.0392 42.1549 15.335C42.6631 15.0898 43.1834 14.8635 43.7036 14.6686C39.4809 14.0587 36.2382 13.1596 33.7215 12.0719H26.4981V10.9401H31.4589C30.4304 10.3428 29.5592 9.70778 28.8333 9.05389H22.1422V7.92216H27.708C27.1514 7.2997 26.6916 6.67096 26.2924 6.03593H20.2063V4.90419H25.6269C25.2881 4.26916 24.9856 3.63413 24.7073 3.01796H18.2703V1.88623H24.1991C23.9087 1.22605 23.6063 0.59479 23.2675 0H2.13315ZM12.4626 7.92216C16.2618 7.92216 19.3593 9.53174 19.3593 11.506C19.3593 13.4802 16.2618 15.0898 12.4626 15.0898C8.66692 15.0898 5.5658 13.4802 5.5658 11.506C5.5658 9.53174 8.66692 7.92216 12.4626 7.92216ZM12.4626 9.05389C9.84905 9.05389 7.74372 10.1479 7.74372 11.506C7.74372 12.8641 9.84905 13.9581 12.4626 13.9581C15.0761 13.9581 17.1814 12.8641 17.1814 11.506C17.1814 10.1479 15.0761 9.05389 12.4626 9.05389ZM47.2609 15.0898C46.6559 15.1087 45.0104 15.4985 43.631 16.165C42.5784 16.668 41.6346 17.3156 41.0659 17.982H51.1812C52.5726 17.982 54.2787 17.6237 55.8516 17.2087C55.8032 16.9446 55.7306 16.7246 55.5854 16.5799C55.3918 16.3725 55.1135 16.2216 54.5328 16.0581C53.3712 15.7311 51.036 15.4608 47.2609 15.0898ZM55.9 18.4159C55.658 18.4725 55.4886 18.5165 55.2103 18.5731C53.9641 18.8308 52.5121 19.1138 51.1812 19.1138H0V21H49.2452C51.9313 21 54.7263 20.453 55.9 20.1952V18.4159Z" fill="black"/>
</svg>
