<svg width="80" height="80" viewBox="0 0 80 80" fill="none" xmlns="http://www.w3.org/2000/svg">
<path d="M35.75 4.18579C38.3799 2.66741 41.6201 2.66741 44.25 4.18579L68.891 18.4123C71.5209 19.9307 73.141 22.7367 73.141 25.7735V54.2265C73.141 57.2633 71.5209 60.0693 68.891 61.5877L44.25 75.8142C41.6201 77.3326 38.3799 77.3326 35.75 75.8142L11.109 61.5877C8.47907 60.0693 6.85898 57.2633 6.85898 54.2265V25.7735C6.85898 22.7367 8.47907 19.9307 11.109 18.4123L35.75 4.18579Z" fill="#CCCCCC" stroke="#666666" stroke-width="3"/>
<path d="M39.4906 16.0623C42.1934 16.0623 44.7855 17.136 46.6967 19.0472C48.6079 20.9584 49.6816 23.5505 49.6816 26.2533C49.6816 28.9562 48.6079 31.5483 46.6967 33.4595C44.7855 35.3707 42.1934 36.4444 39.4906 36.4444C36.7877 36.4444 34.1956 35.3707 32.2844 33.4595C30.3732 31.5483 29.2995 28.9562 29.2995 26.2533C29.2995 23.5505 30.3732 20.9584 32.2844 19.0472C34.1956 17.136 36.7877 16.0623 39.4906 16.0623ZM39.4906 41.54C50.7517 41.54 59.8727 46.1005 59.8727 51.731V56.8266H19.1084V51.731C19.1084 46.1005 28.2294 41.54 39.4906 41.54Z" fill="#666666"/>
</svg>
