<svg width="43" height="21" viewBox="0 0 43 21" fill="none" xmlns="http://www.w3.org/2000/svg">
<path d="M55.9002 0L15.0043 18.6878C11.613 20.2293 8.76519 21 6.46085 21C3.85215 21 1.96007 20.0193 0.784608 18.0578C0.0470308 16.798 -0.17036 15.1999 0.132434 13.2634C0.436782 11.327 1.24113 9.26223 2.54548 7.06916C3.63243 5.29437 5.41582 2.96131 7.89563 0.0699914C7.05341 1.49102 6.43636 3.05196 6.06954 4.68944C5.41737 7.67575 6.00432 9.86882 7.83041 11.2687C8.69997 11.9219 9.89563 12.2485 11.4174 12.2485C12.6332 12.2485 14.0028 12.0386 15.5261 11.6186L55.9002 0Z" fill="black"/>
</svg>
