<svg width="56" height="21" viewBox="0 0 56 21" fill="none" xmlns="http://www.w3.org/2000/svg">
<path d="M55.5397 0.29335C54.5684 -0.311659 52.8705 0.173029 52.1228 0.384158C46.8029 1.912 46.018 4.60219 44.164 6.14706C42.7059 7.38432 40.3162 8.2924 38.1547 8.36278C36.5569 8.4184 34.8239 8.26743 33.105 7.90307C28.8962 7.01655 26.6299 5.86897 26.0779 5.66692C24.9436 5.24693 16.2254 1.10949 9.12141 0.940357C9.12141 0.940357 8.25495 0.0890318 8.03834 0.0742755C7.52126 0.045898 6.99021 0.586206 6.60356 0.642961C6.25418 0.703121 5.64161 0.0617894 5.28757 0.0901669C4.93121 0.112869 4.58416 0.755336 3.89006 1.08565C3.37764 1.32743 2.75808 1.31267 2.40637 1.6112C2.28526 1.72017 2.32718 1.912 2.18976 2.08794C1.89395 2.45118 0.90638 2.48977 0.897064 2.87911C0.897064 3.31158 1.72858 3.39445 2.45529 3.69638C3.03292 3.93702 3.07252 4.10729 3.74565 4.21966C4.34658 4.31955 5.2177 4.0074 5.99099 4.11977C6.63617 4.21172 7.25573 4.27869 7.39316 4.59992C7.51893 4.89051 7.39316 5.34682 6.60123 5.29574C6.34036 5.27871 5.20838 5.09823 3.81087 5.17088C2.12221 5.25828 0.19365 5.52162 0.00498644 6.43084C-0.0905101 6.93823 1.20219 7.53189 2.46227 7.41384C3.3264 7.33324 2.91879 6.83948 3.39162 6.6011C4.01351 6.29463 7.51893 7.67264 10.7798 7.67264C12.161 7.67264 13.1812 7.50238 14.1967 6.9859C14.2899 6.95299 14.4133 6.87012 14.5577 6.86104C14.7202 6.88081 14.874 6.91464 15.0119 6.96093C17.6462 7.97912 19.633 10.0257 29.2898 10.0495C30.6454 10.0575 32.2013 10.3662 33.473 10.9315C34.591 11.423 35.2525 12.2085 35.8884 13.0031C36.862 14.1983 38.5926 15.3516 41.2269 16.6388C41.3666 16.716 43.5328 17.5242 43.6958 17.5843C43.7238 17.5957 43.8915 17.7739 43.8192 17.8738C43.7727 18.657 43.5328 20.9045 46.9986 20.9987C47.8511 21.0214 47.6391 20.7365 47.6391 20.5333C47.6275 20.1463 47.4877 19.7558 47.9023 19.3528C48.4916 18.8102 46.6772 18.548 46.7168 17.3596C46.761 16.4697 45.2144 16.6206 44.4248 15.9407C43.9823 15.5514 43.5677 15.3368 43.6096 14.8669C43.7797 12.1654 42.4054 10.3855 41.7346 9.95533C41.2059 9.62161 40.7494 9.49788 41.2525 9.34237C44.1407 8.41726 44.8045 7.55572 44.8045 7.55572C46.3418 5.80653 47.7299 4.21285 49.6376 3.50341C50.0242 3.3672 51.0094 3.00397 51.622 2.86776C53.3992 2.45685 54.3541 2.21167 54.8549 1.9733C55.6841 1.59077 56.334 0.778038 55.5397 0.29335Z" fill="black"/>
</svg>
