<svg width="88" height="36" viewBox="0 0 88 36" fill="none" xmlns="http://www.w3.org/2000/svg">
<path d="M42.032 19.376C42.032 18.032 42.304 16.856 42.848 15.848C43.392 14.824 44.136 14.032 45.08 13.472C46.04 12.912 47.104 12.632 48.272 12.632C49.424 12.632 50.424 12.88 51.272 13.376C52.12 13.872 52.752 14.496 53.168 15.248V12.848H55.376V26H53.168V23.552C52.736 24.32 52.088 24.96 51.224 25.472C50.376 25.968 49.384 26.216 48.248 26.216C47.08 26.216 46.024 25.928 45.08 25.352C44.136 24.776 43.392 23.968 42.848 22.928C42.304 21.888 42.032 20.704 42.032 19.376ZM53.168 19.4C53.168 18.408 52.968 17.544 52.568 16.808C52.168 16.072 51.624 15.512 50.936 15.128C50.264 14.728 49.52 14.528 48.704 14.528C47.888 14.528 47.144 14.72 46.472 15.104C45.8 15.488 45.264 16.048 44.864 16.784C44.464 17.52 44.264 18.384 44.264 19.376C44.264 20.384 44.464 21.264 44.864 22.016C45.264 22.752 45.8 23.32 46.472 23.72C47.144 24.104 47.888 24.296 48.704 24.296C49.52 24.296 50.264 24.104 50.936 23.72C51.624 23.32 52.168 22.752 52.568 22.016C52.968 21.264 53.168 20.392 53.168 19.4ZM57.2907 19.376C57.2907 18.032 57.5628 16.856 58.1068 15.848C58.6508 14.824 59.3948 14.032 60.3388 13.472C61.2988 12.912 62.3708 12.632 63.5548 12.632C64.5788 12.632 65.5308 12.872 66.4108 13.352C67.2908 13.816 67.9628 14.432 68.4268 15.2V8.24H70.6348V26H68.4268V23.528C67.9948 24.312 67.3548 24.96 66.5068 25.472C65.6588 25.968 64.6668 26.216 63.5308 26.216C62.3628 26.216 61.2988 25.928 60.3388 25.352C59.3948 24.776 58.6508 23.968 58.1068 22.928C57.5628 21.888 57.2907 20.704 57.2907 19.376ZM68.4268 19.4C68.4268 18.408 68.2268 17.544 67.8268 16.808C67.4268 16.072 66.8828 15.512 66.1948 15.128C65.5228 14.728 64.7788 14.528 63.9628 14.528C63.1468 14.528 62.4028 14.72 61.7308 15.104C61.0588 15.488 60.5228 16.048 60.1228 16.784C59.7228 17.52 59.5228 18.384 59.5228 19.376C59.5228 20.384 59.7228 21.264 60.1228 22.016C60.5228 22.752 61.0588 23.32 61.7308 23.72C62.4028 24.104 63.1468 24.296 63.9628 24.296C64.7788 24.296 65.5228 24.104 66.1948 23.72C66.8828 23.32 67.4268 22.752 67.8268 22.016C68.2268 21.264 68.4268 20.392 68.4268 19.4ZM72.5495 19.376C72.5495 18.032 72.8215 16.856 73.3655 15.848C73.9095 14.824 74.6535 14.032 75.5975 13.472C76.5575 12.912 77.6295 12.632 78.8135 12.632C79.8375 12.632 80.7895 12.872 81.6695 13.352C82.5495 13.816 83.2215 14.432 83.6855 15.2V8.24H85.8935V26H83.6855V23.528C83.2535 24.312 82.6135 24.96 81.7655 25.472C80.9175 25.968 79.9255 26.216 78.7895 26.216C77.6215 26.216 76.5575 25.928 75.5975 25.352C74.6535 24.776 73.9095 23.968 73.3655 22.928C72.8215 21.888 72.5495 20.704 72.5495 19.376ZM83.6855 19.4C83.6855 18.408 83.4855 17.544 83.0855 16.808C82.6855 16.072 82.1415 15.512 81.4535 15.128C80.7815 14.728 80.0375 14.528 79.2215 14.528C78.4055 14.528 77.6615 14.72 76.9895 15.104C76.3175 15.488 75.7815 16.048 75.3815 16.784C74.9815 17.52 74.7815 18.384 74.7815 19.376C74.7815 20.384 74.9815 21.264 75.3815 22.016C75.7815 22.752 76.3175 23.32 76.9895 23.72C77.6615 24.104 78.4055 24.296 79.2215 24.296C80.0375 24.296 80.7815 24.104 81.4535 23.72C82.1415 23.32 82.6855 22.752 83.0855 22.016C83.4855 21.264 83.6855 20.392 83.6855 19.4Z" fill="black"/>
<path d="M24.0001 19.3306H17.3334V25.9973C17.3334 26.3509 17.1929 26.69 16.9429 26.9401C16.6928 27.1901 16.3537 27.3306 16.0001 27.3306C15.6465 27.3306 15.3073 27.1901 15.0573 26.9401C14.8072 26.69 14.6667 26.3509 14.6667 25.9973V19.3306H8.00008C7.64646 19.3306 7.30732 19.1901 7.05727 18.9401C6.80722 18.69 6.66675 18.3509 6.66675 17.9973C6.66675 17.6437 6.80722 17.3045 7.05727 17.0545C7.30732 16.8044 7.64646 16.6639 8.00008 16.6639H14.6667V9.99727C14.6667 9.64365 14.8072 9.30451 15.0573 9.05446C15.3073 8.80442 15.6465 8.66394 16.0001 8.66394C16.3537 8.66394 16.6928 8.80442 16.9429 9.05446C17.1929 9.30451 17.3334 9.64365 17.3334 9.99727V16.6639H24.0001C24.3537 16.6639 24.6928 16.8044 24.9429 17.0545C25.1929 17.3045 25.3334 17.6437 25.3334 17.9973C25.3334 18.3509 25.1929 18.69 24.9429 18.9401C24.6928 19.1901 24.3537 19.3306 24.0001 19.3306Z" fill="black"/>
</svg>
