<svg width="200" height="200" viewBox="0 0 200 200" fill="none" xmlns="http://www.w3.org/2000/svg">
<rect width="200" height="200" fill="white"/>
<path d="M99.5 34C105.401 34 111.06 36.3442 115.233 40.5169C119.406 44.6896 121.75 50.3489 121.75 56.25C121.75 62.1511 119.406 67.8104 115.233 71.9831C111.06 76.1558 105.401 78.5 99.5 78.5C93.5989 78.5 87.9396 76.1558 83.7669 71.9831C79.5942 67.8104 77.25 62.1511 77.25 56.25C77.25 50.3489 79.5942 44.6896 83.7669 40.5169C87.9396 36.3442 93.5989 34 99.5 34ZM99.5 89.625C124.086 89.625 144 99.5819 144 111.875V123H55V111.875C55 99.5819 74.9137 89.625 99.5 89.625Z" fill="#666666"/>
<path d="M38.76 144.1V152.96C38.76 154.013 39.0333 154.807 39.58 155.34C40.14 155.873 40.9133 156.14 41.9 156.14C42.9 156.14 43.6733 155.873 44.22 155.34C44.78 154.807 45.06 154.013 45.06 152.96V144.1H47.34V152.92C47.34 154.053 47.0933 155.013 46.6 155.8C46.1067 156.587 45.4467 157.173 44.62 157.56C43.7933 157.947 42.88 158.14 41.88 158.14C40.88 158.14 39.9667 157.947 39.14 157.56C38.3267 157.173 37.68 156.587 37.2 155.8C36.72 155.013 36.48 154.053 36.48 152.92V144.1H38.76ZM51.7886 148.6C52.1753 148.093 52.7019 147.667 53.3686 147.32C54.0353 146.973 54.7886 146.8 55.6286 146.8C56.5886 146.8 57.4619 147.04 58.2486 147.52C59.0486 147.987 59.6753 148.647 60.1286 149.5C60.5819 150.353 60.8086 151.333 60.8086 152.44C60.8086 153.547 60.5819 154.54 60.1286 155.42C59.6753 156.287 59.0486 156.967 58.2486 157.46C57.4619 157.94 56.5886 158.18 55.6286 158.18C54.7886 158.18 54.0419 158.013 53.3886 157.68C52.7353 157.333 52.2019 156.907 51.7886 156.4V163.24H49.5086V146.98H51.7886V148.6ZM58.4886 152.44C58.4886 151.68 58.3286 151.027 58.0086 150.48C57.7019 149.92 57.2886 149.5 56.7686 149.22C56.2619 148.927 55.7153 148.78 55.1286 148.78C54.5553 148.78 54.0086 148.927 53.4886 149.22C52.9819 149.513 52.5686 149.94 52.2486 150.5C51.9419 151.06 51.7886 151.72 51.7886 152.48C51.7886 153.24 51.9419 153.907 52.2486 154.48C52.5686 155.04 52.9819 155.467 53.4886 155.76C54.0086 156.053 54.5553 156.2 55.1286 156.2C55.7153 156.2 56.2619 156.053 56.7686 155.76C57.2886 155.453 57.7019 155.013 58.0086 154.44C58.3286 153.867 58.4886 153.2 58.4886 152.44ZM64.5433 143.2V158H62.2633V143.2H64.5433ZM71.5167 158.18C70.4767 158.18 69.5367 157.947 68.6967 157.48C67.8567 157 67.1967 156.333 66.7167 155.48C66.2367 154.613 65.9967 153.613 65.9967 152.48C65.9967 151.36 66.2434 150.367 66.7367 149.5C67.2301 148.633 67.9034 147.967 68.7567 147.5C69.6101 147.033 70.5634 146.8 71.6167 146.8C72.6701 146.8 73.6234 147.033 74.4767 147.5C75.3301 147.967 76.0034 148.633 76.4967 149.5C76.9901 150.367 77.2367 151.36 77.2367 152.48C77.2367 153.6 76.9834 154.593 76.4767 155.46C75.9701 156.327 75.2767 157 74.3967 157.48C73.5301 157.947 72.5701 158.18 71.5167 158.18ZM71.5167 156.2C72.1034 156.2 72.6501 156.06 73.1567 155.78C73.6767 155.5 74.0967 155.08 74.4167 154.52C74.7367 153.96 74.8967 153.28 74.8967 152.48C74.8967 151.68 74.7434 151.007 74.4367 150.46C74.1301 149.9 73.7234 149.48 73.2167 149.2C72.7101 148.92 72.1634 148.78 71.5767 148.78C70.9901 148.78 70.4434 148.92 69.9367 149.2C69.4434 149.48 69.0501 149.9 68.7567 150.46C68.4634 151.007 68.3167 151.68 68.3167 152.48C68.3167 153.667 68.6167 154.587 69.2167 155.24C69.8301 155.88 70.5967 156.2 71.5167 156.2ZM77.9306 152.44C77.9306 151.333 78.1573 150.353 78.6106 149.5C79.0773 148.647 79.704 147.987 80.4906 147.52C81.2906 147.04 82.1706 146.8 83.1306 146.8C83.9973 146.8 84.7506 146.973 85.3906 147.32C86.044 147.653 86.564 148.073 86.9506 148.58V146.98H89.2506V158H86.9506V156.36C86.564 156.88 86.0373 157.313 85.3706 157.66C84.704 158.007 83.944 158.18 83.0906 158.18C82.144 158.18 81.2773 157.94 80.4906 157.46C79.704 156.967 79.0773 156.287 78.6106 155.42C78.1573 154.54 77.9306 153.547 77.9306 152.44ZM86.9506 152.48C86.9506 151.72 86.7906 151.06 86.4706 150.5C86.164 149.94 85.7573 149.513 85.2506 149.22C84.744 148.927 84.1973 148.78 83.6106 148.78C83.024 148.78 82.4773 148.927 81.9706 149.22C81.464 149.5 81.0506 149.92 80.7306 150.48C80.424 151.027 80.2706 151.68 80.2706 152.44C80.2706 153.2 80.424 153.867 80.7306 154.44C81.0506 155.013 81.464 155.453 81.9706 155.76C82.4906 156.053 83.0373 156.2 83.6106 156.2C84.1973 156.2 84.744 156.053 85.2506 155.76C85.7573 155.467 86.164 155.04 86.4706 154.48C86.7906 153.907 86.9506 153.24 86.9506 152.48ZM90.6853 152.44C90.6853 151.333 90.912 150.353 91.3653 149.5C91.832 148.647 92.4586 147.987 93.2453 147.52C94.0453 147.04 94.932 146.8 95.9053 146.8C96.6253 146.8 97.332 146.96 98.0253 147.28C98.732 147.587 99.292 148 99.7053 148.52V143.2H102.005V158H99.7053V156.34C99.332 156.873 98.812 157.313 98.1453 157.66C97.492 158.007 96.7386 158.18 95.8853 158.18C94.9253 158.18 94.0453 157.94 93.2453 157.46C92.4586 156.967 91.832 156.287 91.3653 155.42C90.912 154.54 90.6853 153.547 90.6853 152.44ZM99.7053 152.48C99.7053 151.72 99.5453 151.06 99.2253 150.5C98.9186 149.94 98.512 149.513 98.0053 149.22C97.4986 148.927 96.952 148.78 96.3653 148.78C95.7786 148.78 95.232 148.927 94.7253 149.22C94.2186 149.5 93.8053 149.92 93.4853 150.48C93.1786 151.027 93.0253 151.68 93.0253 152.44C93.0253 153.2 93.1786 153.867 93.4853 154.44C93.8053 155.013 94.2186 155.453 94.7253 155.76C95.2453 156.053 95.792 156.2 96.3653 156.2C96.952 156.2 97.4986 156.053 98.0053 155.76C98.512 155.467 98.9186 155.04 99.2253 154.48C99.5453 153.907 99.7053 153.24 99.7053 152.48ZM110.875 148.6C111.262 148.093 111.789 147.667 112.455 147.32C113.122 146.973 113.875 146.8 114.715 146.8C115.675 146.8 116.549 147.04 117.335 147.52C118.135 147.987 118.762 148.647 119.215 149.5C119.669 150.353 119.895 151.333 119.895 152.44C119.895 153.547 119.669 154.54 119.215 155.42C118.762 156.287 118.135 156.967 117.335 157.46C116.549 157.94 115.675 158.18 114.715 158.18C113.875 158.18 113.129 158.013 112.475 157.68C111.822 157.333 111.289 156.907 110.875 156.4V163.24H108.595V146.98H110.875V148.6ZM117.575 152.44C117.575 151.68 117.415 151.027 117.095 150.48C116.789 149.92 116.375 149.5 115.855 149.22C115.349 148.927 114.802 148.78 114.215 148.78C113.642 148.78 113.095 148.927 112.575 149.22C112.069 149.513 111.655 149.94 111.335 150.5C111.029 151.06 110.875 151.72 110.875 152.48C110.875 153.24 111.029 153.907 111.335 154.48C111.655 155.04 112.069 155.467 112.575 155.76C113.095 156.053 113.642 156.2 114.215 156.2C114.802 156.2 115.349 156.053 115.855 155.76C116.375 155.453 116.789 155.013 117.095 154.44C117.415 153.867 117.575 153.2 117.575 152.44ZM127.05 146.8C127.89 146.8 128.637 146.98 129.29 147.34C129.957 147.7 130.477 148.233 130.85 148.94C131.237 149.647 131.43 150.5 131.43 151.5V158H129.17V151.84C129.17 150.853 128.923 150.1 128.43 149.58C127.937 149.047 127.263 148.78 126.41 148.78C125.557 148.78 124.877 149.047 124.37 149.58C123.877 150.1 123.63 150.853 123.63 151.84V158H121.35V143.2H123.63V148.26C124.017 147.793 124.503 147.433 125.09 147.18C125.69 146.927 126.343 146.8 127.05 146.8ZM138.318 158.18C137.278 158.18 136.338 157.947 135.498 157.48C134.658 157 133.998 156.333 133.518 155.48C133.038 154.613 132.798 153.613 132.798 152.48C132.798 151.36 133.045 150.367 133.538 149.5C134.032 148.633 134.705 147.967 135.558 147.5C136.412 147.033 137.365 146.8 138.418 146.8C139.472 146.8 140.425 147.033 141.278 147.5C142.132 147.967 142.805 148.633 143.298 149.5C143.792 150.367 144.038 151.36 144.038 152.48C144.038 153.6 143.785 154.593 143.278 155.46C142.772 156.327 142.078 157 141.198 157.48C140.332 157.947 139.372 158.18 138.318 158.18ZM138.318 156.2C138.905 156.2 139.452 156.06 139.958 155.78C140.478 155.5 140.898 155.08 141.218 154.52C141.538 153.96 141.698 153.28 141.698 152.48C141.698 151.68 141.545 151.007 141.238 150.46C140.932 149.9 140.525 149.48 140.018 149.2C139.512 148.92 138.965 148.78 138.378 148.78C137.792 148.78 137.245 148.92 136.738 149.2C136.245 149.48 135.852 149.9 135.558 150.46C135.265 151.007 135.118 151.68 135.118 152.48C135.118 153.667 135.418 154.587 136.018 155.24C136.632 155.88 137.398 156.2 138.318 156.2ZM148.152 148.84V154.94C148.152 155.353 148.246 155.653 148.432 155.84C148.632 156.013 148.966 156.1 149.432 156.1H150.832V158H149.032C148.006 158 147.219 157.76 146.672 157.28C146.126 156.8 145.852 156.02 145.852 154.94V148.84H144.552V146.98H145.852V144.24H148.152V146.98H150.832V148.84H148.152ZM156.914 158.18C155.874 158.18 154.934 157.947 154.094 157.48C153.254 157 152.594 156.333 152.114 155.48C151.634 154.613 151.394 153.613 151.394 152.48C151.394 151.36 151.64 150.367 152.134 149.5C152.627 148.633 153.3 147.967 154.154 147.5C155.007 147.033 155.96 146.8 157.014 146.8C158.067 146.8 159.02 147.033 159.874 147.5C160.727 147.967 161.4 148.633 161.894 149.5C162.387 150.367 162.634 151.36 162.634 152.48C162.634 153.6 162.38 154.593 161.874 155.46C161.367 156.327 160.674 157 159.794 157.48C158.927 157.947 157.967 158.18 156.914 158.18ZM156.914 156.2C157.5 156.2 158.047 156.06 158.554 155.78C159.074 155.5 159.494 155.08 159.814 154.52C160.134 153.96 160.294 153.28 160.294 152.48C160.294 151.68 160.14 151.007 159.834 150.46C159.527 149.9 159.12 149.48 158.614 149.2C158.107 148.92 157.56 148.78 156.974 148.78C156.387 148.78 155.84 148.92 155.334 149.2C154.84 149.48 154.447 149.9 154.154 150.46C153.86 151.007 153.714 151.68 153.714 152.48C153.714 153.667 154.014 154.587 154.614 155.24C155.227 155.88 155.994 156.2 156.914 156.2Z" fill="#484848"/>
</svg>
