<svg width="38" height="39" viewBox="0 0 38 39" fill="none" xmlns="http://www.w3.org/2000/svg">
<path d="M4.90622 6.91167C4.82847 6.96239 4.75637 7.02168 4.69122 7.08848L1.05372 10.8169C0.547038 11.3373 0.260606 12.0412 0.256395 12.7763C0.252184 13.5115 0.530533 14.2188 1.03122 14.7452L1.05497 14.7709L1.16747 14.8977L1.59997 15.3769C1.97497 15.7907 2.51372 16.3865 3.17872 17.1117C4.88033 18.97 6.60084 20.8099 8.33997 22.6313C12.3 26.7736 17.0562 31.5129 19.89 33.4656C23.0812 35.6744 25.9812 36.9185 28.0987 37.6117C29.1587 37.9576 30.0212 38.1678 30.63 38.2908C30.9316 38.3523 31.2351 38.404 31.54 38.4458L31.5837 38.4509C32.4275 38.588 33.1737 38.6124 33.8375 38.4701C34.4907 38.3382 35.0904 38.0084 35.5587 37.5233L36.4337 36.6264C36.4987 36.5598 36.555 36.4868 36.6037 36.4099C36.9981 36.0432 37.3131 35.5958 37.5284 35.0966C37.7437 34.5974 37.8545 34.0575 37.8537 33.5117C37.7075 31.855 36.1825 30.8979 34.8325 30.0523C34.153 29.7071 33.5465 29.2282 33.0475 28.6429L32.0537 26.2649H32.0625C32.4106 26.2649 32.7444 26.1232 32.9905 25.8709C33.2367 25.6186 33.375 25.2764 33.375 24.9196C33.375 24.5628 33.2367 24.2207 32.9905 23.9684C32.7444 23.7161 32.4106 23.5743 32.0625 23.5743H30.9287L30.1237 21.6473C30.4078 21.5318 30.6437 21.3183 30.7906 21.0435C30.9376 20.7688 30.9863 20.4502 30.9286 20.1425C30.8708 19.8349 30.7101 19.5576 30.4741 19.3584C30.2382 19.1592 29.9419 19.0507 29.6362 19.0515H29.0387L28.3737 17.4615C28.717 17.4462 29.0408 17.2935 29.2755 17.0362C29.5102 16.7789 29.637 16.4375 29.6288 16.0854C29.6207 15.7333 29.4781 15.3985 29.2317 15.1529C28.9853 14.9074 28.6549 14.7707 28.3112 14.7721H27.25L26.7362 13.5421C26.6587 13.35 26.6112 13.2116 26.5712 13.0937C26.4046 12.5339 26.0936 12.0307 25.6712 11.6369L25.0212 10.9694C24.7217 10.6738 24.3592 10.4536 23.9625 10.3262V9.74964C23.1812 7.33448 20.3312 6.4927 18.42 7.96229L15.76 5.18198C15.9991 4.93459 16.1882 4.6412 16.3164 4.31867C16.4446 3.99613 16.5093 3.65082 16.5069 3.30256C16.5044 2.9543 16.4349 2.60997 16.3022 2.28936C16.1695 1.96875 15.9763 1.67817 15.7337 1.43433C15.0043 0.689244 14.0166 0.270874 12.9868 0.270874C11.9571 0.270874 10.9693 0.689244 10.24 1.43433L4.90622 6.91167ZM16.7337 18.6735L16.7375 17.719C16.7375 15.5409 15.9125 13.4653 14.4375 11.915L9.04997 6.28258L12.0062 3.24858C12.139 3.11195 12.2987 3.00593 12.4746 2.9376C12.6505 2.86926 12.8386 2.84019 13.0264 2.85232C13.2142 2.86444 13.3972 2.91749 13.5634 3.00792C13.7296 3.09835 13.875 3.22407 13.99 3.3767C13.5109 3.87032 13.242 4.53826 13.242 5.23451C13.242 5.93077 13.5109 6.59871 13.99 7.09233L19.5275 12.7836C20.0276 13.2778 20.6953 13.5539 21.39 13.5539C22.0847 13.5539 22.7523 13.2778 23.2525 12.7836L23.9025 13.4499C24.0548 13.5719 24.1627 13.743 24.2087 13.9355L24.2125 13.9483C24.2662 14.1072 24.3325 14.2994 24.4375 14.5492L24.53 14.7721H23.35C22.625 14.7721 22.0375 15.3743 22.0375 16.1174C22.041 16.4731 22.1805 16.8132 22.4258 17.0647C22.6712 17.3162 23.003 17.4591 23.35 17.4628H25.655L26.3187 19.0515H25.3375C24.6125 19.0515 24.025 19.6537 24.025 20.3968C24.0285 20.7525 24.168 21.0925 24.4133 21.344C24.6587 21.5956 24.9905 21.7385 25.3375 21.7421H27.4437L28.2087 23.5743H26.9875C26.2625 23.5743 25.675 24.1765 25.675 24.9196C25.675 25.2912 25.825 25.6243 26.0625 25.8678C26.3 26.1112 26.625 26.2521 26.9875 26.2649H29.3337L30.75 29.6551C31.404 30.7817 32.3741 31.68 33.5337 32.233L33.5375 32.2356C34.1662 32.6289 35.335 33.3592 35.3662 33.7244C35.3662 33.7961 35.2975 34.0152 34.985 34.374C32.8485 34.1003 30.7516 33.566 28.7387 32.7827C25.0612 31.3323 21.26 28.7557 19.8412 24.197L19.84 24.1944C19.3337 22.5801 18.1925 20.7005 16.87 18.8606C16.8247 18.7981 16.7793 18.7358 16.7337 18.6735ZM2.81872 12.954C2.78775 12.9152 2.77084 12.8665 2.77084 12.8163C2.77084 12.7661 2.78775 12.7175 2.81872 12.6786L5.61247 9.8137C7.29847 11.5076 8.93665 13.2508 10.525 15.0412C12.0337 16.7453 13.5825 18.6095 14.8562 20.3802C16.1487 22.1778 17.0825 23.778 17.4587 24.976C17.5166 25.1631 17.5783 25.3489 17.6437 25.5334L2.82122 12.9566L2.81872 12.954Z" fill="black"/>
</svg>
