<svg width="41" height="41" viewBox="0 0 41 41" fill="none" xmlns="http://www.w3.org/2000/svg">
<path d="M20.4906 0.0622559C23.1934 0.0622559 25.7855 1.13596 27.6967 3.04715C29.6079 4.95835 30.6816 7.5505 30.6816 10.2533C30.6816 12.9562 29.6079 15.5483 27.6967 17.4595C25.7855 19.3707 23.1934 20.4444 20.4906 20.4444C17.7877 20.4444 15.1956 19.3707 13.2844 17.4595C11.3732 15.5483 10.2995 12.9562 10.2995 10.2533C10.2995 7.5505 11.3732 4.95835 13.2844 3.04715C15.1956 1.13596 17.7877 0.0622559 20.4906 0.0622559ZM20.4906 25.54C31.7517 25.54 40.8727 30.1005 40.8727 35.731V40.8266H0.108398V35.731C0.108398 30.1005 9.22942 25.54 20.4906 25.54Z" fill="#666666"/>
</svg>
